<svg width="364" height="363" viewBox="0 0 364 363" fill="none" xmlns="http://www.w3.org/2000/svg">
<path d="M232.114 70.7296C231.598 71.157 230.951 73.7117 230.172 78.6772C227.556 94.2364 219.734 135.668 217.242 147.021C214.796 158.231 211.958 176.958 211.979 181.92C212.016 191.135 214.615 194.386 222.185 194.875C225.335 195.051 225.617 195.002 226.271 193.96C226.645 193.344 227.523 189.749 228.166 185.965C228.855 182.182 230.192 175.607 231.208 171.302C232.178 166.998 233.33 161.416 233.743 158.863C234.203 156.309 234.57 154.275 234.665 154.369C234.759 154.463 235.049 156.353 235.34 158.62C236.264 166.225 239.179 177.792 241.457 182.934C243.259 186.991 244.111 188.31 246.943 191.229C250.673 195.089 252.085 195.698 255.184 194.834C256.217 194.547 258.375 193.356 259.921 192.168C262.077 190.505 262.872 189.557 263.289 188.138C264.124 185.299 263.414 184.262 259.128 182.105C255.265 180.183 251.679 176.89 248.747 172.601C246.951 170.009 244.522 162.316 243.842 156.931C243.307 152.68 243.182 145.024 243.594 142.376L243.869 140.673L248.756 140.181C255.992 139.49 259.369 137.68 265.876 130.99C272.945 123.73 275.651 118.804 279.034 106.833C281.629 97.7489 282.606 83.8505 280.989 79.1784C279.895 76.0637 277.864 73.6145 275.179 72.3495C273.389 71.4589 272.307 71.3215 268.124 71.3386C265.445 71.3968 262.437 71.6454 261.498 71.8855C259.338 72.5087 255.031 76.7797 253.165 80.2373C252.465 81.5162 249.209 90.0363 245.956 99.1707C242.703 108.258 239.681 116.493 239.308 117.393C238.423 119.334 238.332 120.043 240.865 107.226C245.977 81.2591 246.48 77.8071 245.343 75.7323C244.538 74.2233 241.236 71.3539 239.588 70.7463C237.611 69.9982 233.051 70.0168 232.114 70.7296ZM266.173 76.9705C267.211 78.1477 267.55 80.4621 267.575 86.7003C267.6 92.7495 266.955 96.013 263.753 105.951C259.482 119.201 253.223 128.915 246.376 132.865C242.343 135.245 240.464 135.489 240.456 133.646C240.45 132.133 243.505 120.542 246.519 110.511C253.059 88.8863 257.905 78.3276 261.988 76.6568C263.677 75.9882 265.417 76.1229 266.173 76.9705Z" fill="#F70387"/>
<path d="M150.513 71.7719C149.998 72.2466 144.87 82.8538 139.092 95.354C126.046 123.621 115.513 145.829 114.811 146.588C114.53 146.873 112.419 147.922 110.073 148.876C101.109 152.599 93.7943 157.024 83.8137 164.863C78.7062 168.854 75.8047 172.032 71.7859 177.861C66.4118 185.634 63.1661 196.611 65.0626 200.573C65.9637 202.507 67.1404 202.881 70.9468 202.582C77.2439 202.131 85.8653 195.29 96.2496 182.724C103.78 173.572 108.64 166.463 113.165 157.938C115.358 153.864 117.412 150.5 117.741 150.499C118.07 150.498 122.015 149.395 126.522 148.1C131.029 146.758 135.021 145.702 135.444 145.701C136.055 145.698 136.15 145.981 135.966 146.975C135.182 150.664 130.206 186.791 130.213 188.54C130.221 190.43 130.41 190.76 132.249 192.076C136.822 195.46 143.128 197.183 145.755 195.754C147.818 194.611 148.465 191.82 151.525 169.927C153.17 158.247 154.724 147.418 154.952 145.857C155.181 144.297 155.41 142.878 155.409 142.689C155.409 142.5 158.506 141.353 162.356 140.109C169.633 137.763 171.04 137.001 170.798 135.443C170.556 133.79 167.125 133.898 161.492 135.67C158.863 136.531 156.609 137.06 156.467 136.919C156.042 136.543 156.862 129.923 160.699 102.827C162.801 87.9791 163.983 78.1442 163.791 77.1526C163.359 75.0749 161.47 72.8614 159.116 71.8313C156.572 70.6602 151.824 70.6323 150.513 71.7719ZM146.081 91.6392C145.896 92.3961 144.062 103.604 141.906 116.562C139.796 129.567 137.866 140.35 137.679 140.54C137.117 141.11 120.401 145.668 120.259 145.337C120.211 145.149 122.167 140.651 124.636 135.3C134.981 112.952 143.181 95.1955 144.206 92.8284C145.37 90.1771 146.543 89.4634 146.081 91.6392ZM111.265 153.219C111.266 153.456 110.849 154.781 110.291 156.201C107.268 164.294 95.0656 180.554 84.95 189.859C75.4904 198.64 72.1604 200.497 69.4726 198.429C67.7275 197.018 67.7154 194.041 69.528 188.977C73.2928 178.517 83.449 167.653 97.1882 159.326C104.128 155.092 111.261 152.038 111.265 153.219Z" fill="#F70387"/>
<path d="M191.692 71.8872C191.27 72.2197 190.617 73.3567 190.198 74.3981C189.129 77.2853 186.184 92.7986 181.455 120.465C176.083 151.915 176.587 148.652 173.898 169.221C171.39 188.182 171.392 188.655 173.942 191.527C175.453 193.27 178.796 194.627 182.464 194.99C184.628 195.17 185.238 195.026 186.644 194.075L188.285 192.934L190.896 176.193C193.965 156.52 200.458 112.022 203.196 91.7366C205.478 74.9973 205.623 75.9419 200.112 73.3179C196.203 71.4907 192.91 70.937 191.692 71.8872Z" fill="#F70387"/>
<path d="M212.289 211.834C211.071 212.832 209.521 213.216 203.414 214.186C199.374 214.864 194.535 215.404 192.701 215.411C184.146 215.446 179.649 219.151 182.535 223.865C183.624 225.609 184.707 226.219 185.503 225.413C185.878 225.033 185.734 224.419 184.977 223.099C183.603 220.647 184.303 219.274 187.448 218.174C189.889 217.313 193.601 217.015 193.933 217.628C194.17 218.099 191.031 243.869 189.565 253.232C187.549 265.859 186.872 272.761 187.395 274.177C188.25 276.348 193.049 277.557 194.876 276.037C196.001 275.134 196.275 273.196 201.552 230.073C202.463 222.98 203.238 217.117 203.285 217.022C203.378 216.975 205.351 216.447 207.651 215.823C212.441 214.575 215.162 213.335 215.581 212.246C216.278 210.306 214.444 210.077 212.289 211.834Z" fill="#F70387"/>
<path d="M140.852 215.245C140.571 215.577 136.329 224.29 131.388 234.613L122.393 253.365L119.811 254.226C114.506 256.091 104.806 263.361 101.346 268.054C96.1576 275.212 96.5642 282.677 102.055 280.575C106.796 278.713 114.985 269.794 120.213 260.746L123.621 254.919L128.175 253.483C133.621 251.759 133.856 251.758 133.532 253.083C133.441 253.698 132.804 258.852 132.122 264.526C130.759 276.204 130.663 275.59 134.381 276.709C136.734 277.409 138.471 276.882 139.076 275.272C139.355 274.562 140.365 268.793 141.327 262.456C142.288 256.119 143.253 250.775 143.488 250.585C143.675 250.395 145.036 249.87 146.444 249.391C149.214 248.482 150.667 247.484 150.663 246.444C150.659 245.499 148.591 245.696 146.199 246.887C145.073 247.459 143.993 247.794 143.852 247.653C143.663 247.512 144.388 240.987 145.391 233.185C147.26 218.905 147.529 215.832 146.917 215.457C146.681 215.316 145.364 215.085 143.906 214.949C141.978 214.721 141.179 214.771 140.852 215.245ZM136.43 237.475C135.188 244.05 134.129 249.489 133.988 249.584C133.66 249.963 125.678 252.123 125.442 251.935C125.206 251.652 138.026 225.559 138.402 225.558C138.543 225.557 137.672 230.901 136.43 237.475ZM120.15 256.635C120.15 256.777 119.265 258.718 118.193 260.944C115.955 265.395 111.184 271.18 105.891 275.833C102.19 279.062 100.689 279.683 99.6963 278.411C98.7507 277.091 98.889 276.429 101.22 271.646C103.924 266.153 107.155 263.068 114.425 259.163C119.49 256.401 120.147 256.115 120.15 256.635Z" fill="#F70387"/>
<path d="M168.163 215.323C163.327 216.571 159.624 219.375 156.261 224.54C153.738 228.284 152.344 232.212 152.032 236.325C151.496 243.369 153.165 249.127 156.753 252.799C160.954 257.035 161.098 257.885 158.341 261.961C155.398 266.321 154.327 269.019 154.434 271.996C154.49 274.264 154.728 275.019 155.578 275.867C156.994 277.279 161.698 278.063 164.28 277.343C166.628 276.719 169.764 273.398 171.254 269.942C172.279 267.67 172.416 266.771 172.171 264.315C171.826 260.346 170.5 257.941 166.488 254.035C160.824 248.435 159.206 243.573 160.681 236.384C161.787 230.897 166.832 223.22 170.958 220.652C172.412 219.748 175.701 219.451 176.738 220.108C178.529 221.235 179.45 228.037 178.191 230.594C177.305 232.393 175.424 232.212 174.805 230.277C174.139 228.295 173.809 228.012 172.966 228.725C172.31 229.2 172.405 229.578 173.448 231.606C174.111 232.926 174.915 234.057 175.292 234.197C176.28 234.571 178.765 233.049 179.793 231.391C180.633 230.064 180.725 229.355 180.473 225.386C180.168 219.716 179.454 217.592 177.427 216.041C175.446 214.537 172.155 214.267 168.163 215.323ZM163.759 264.774C163.259 269.077 159.147 275.096 157.17 274.348C155.051 273.553 157.512 265.981 161.488 261.287L163.125 259.342L163.555 260.947C163.794 261.844 163.895 263.545 163.759 264.774Z" fill="#F70387"/>
<path d="M216.912 215.832C216.68 216.448 216.036 220.137 215.441 224.062C214.893 227.939 213.745 234.56 212.869 238.723C210.703 249.27 208.091 265.869 207.782 270.644C207.562 274.426 207.61 274.709 208.648 275.697C209.734 276.685 219.621 280.52 225.268 282.151C230.398 283.642 234.858 282.254 236.536 278.702C238.167 275.198 236.705 273.928 234.743 277.103C231.894 281.651 229.31 281.993 221.26 279.001L215.987 277.038L216.249 272.263C216.511 267.347 217.839 258.504 221.422 238.215C222.846 230.081 223.53 224.926 223.564 221.665L223.639 216.939L221.99 216.142C221.048 215.674 219.636 215.16 218.789 215.021C217.519 214.743 217.237 214.886 216.912 215.832Z" fill="#F70387"/>
<path d="M264.154 215.592C260.022 216.932 255.522 219.881 251.449 224.009C243.537 231.886 240.981 239.175 244.153 244.55C245.241 246.388 249.248 248.971 252.731 250.138L255.084 250.885L253.491 252.026C250.444 254.259 243.758 262.982 242.643 266.248C241.946 268.33 241.819 271.733 242.392 273.811C243.108 276.454 248.756 278.18 252.841 277.076C258.288 275.589 268.589 265.811 266.702 263.976C266.277 263.505 264.59 264.93 262.767 267.3C260.756 269.908 254.147 274.708 252.549 274.714C250.622 274.722 250.328 271.699 251.764 266.683C253.664 259.87 257.212 253.995 261.336 250.718C264.334 248.342 264.14 246.784 260.802 246.797C258.687 246.806 256.192 245.824 254.305 244.272C252.701 242.908 252.465 242.483 252.267 240.074C252.068 237.57 252.208 237.144 253.982 234.112C256.176 230.37 262.777 223.774 267.605 220.587C274.122 216.26 281.081 216.846 280.067 221.624C279.651 223.516 276.652 225.749 273.458 226.471C271.533 226.904 270.923 227.285 270.926 227.899C270.928 228.372 271.165 228.891 271.401 229.031C272.202 229.548 276.755 227.923 278.817 226.402C281.254 224.643 282.188 223.174 282.508 220.763C282.873 218.068 281.455 216.23 278.302 215.298C274.866 214.319 267.627 214.444 264.154 215.592Z" fill="#F70387"/>
<path d="M83.743 216.565C80.5966 217.334 78.3482 219.281 74.6546 224.164C70.8677 229.236 68.8182 233.829 67.015 241.209C65.0281 249.629 64.4653 261.447 65.6315 270.752C66.36 276.468 67.45 278.637 70.1816 279.902C72.4894 280.979 78.0344 280.531 80.4726 279.009C83.0516 277.439 85.8099 273.742 88.28 268.533C90.8436 263.182 91.5386 260.722 90.4575 260.726C89.4703 260.73 88.629 261.915 86.8122 265.94C84.9953 269.964 80.6473 275.748 78.9578 276.416C77.362 277.037 75.7592 275.909 75.092 273.691C73.4716 268.263 73.5109 254.888 75.17 246.752C76.4612 240.651 79.8117 232.319 82.8018 227.817C84.9044 224.689 88.7903 220.846 90.3394 220.319C91.8417 219.841 93.5393 221.157 94.1119 223.234C94.8274 225.783 94.7835 226.539 93.4853 230.94C92.2797 235.009 92.0081 237.562 92.7602 237.559C93.8413 237.555 94.5869 235.945 95.5089 231.499C96.4324 227.431 96.4746 226.249 96.086 223.179C95.8428 221.195 95.2699 219.023 94.8441 218.363C93.2358 215.912 89.0965 215.268 83.743 216.565Z" fill="#F70387"/>
<path d="M356.5 181.5C356.5 277.578 278.393 355.5 182 355.5C85.6068 355.5 7.5 277.578 7.5 181.5C7.5 85.4219 85.6068 7.5 182 7.5C278.393 7.5 356.5 85.4219 356.5 181.5Z" stroke="#F70387" stroke-width="15"/>
</svg>
