<svg width="365" height="363" viewBox="0 0 365 363" fill="none" xmlns="http://www.w3.org/2000/svg">
<path d="M356.5 181.5C356.5 277.578 278.393 355.5 182 355.5C85.6068 355.5 7.5 277.578 7.5 181.5C7.5 85.4219 85.6068 7.5 182 7.5C278.393 7.5 356.5 85.4219 356.5 181.5Z" stroke="#3D3539" stroke-opacity="0.19" stroke-width="15"/>
<path d="M229.114 71.7296C228.598 72.157 227.951 74.7117 227.172 79.6772C224.556 95.2364 216.734 136.668 214.242 148.021C211.796 159.231 208.959 177.958 208.979 182.92C209.016 192.135 211.615 195.386 219.185 195.875C222.336 196.051 222.617 196.002 223.271 194.96C223.645 194.344 224.523 190.749 225.166 186.965C225.856 183.182 227.192 176.607 228.208 172.302C229.178 167.998 230.33 162.416 230.743 159.863C231.203 157.309 231.57 155.275 231.665 155.369C231.759 155.463 232.049 157.353 232.34 159.62C233.265 167.225 236.179 178.792 238.457 183.934C240.259 187.991 241.111 189.31 243.943 192.229C247.673 196.089 249.085 196.698 252.184 195.834C253.217 195.547 255.375 194.356 256.921 193.168C259.077 191.505 259.872 190.557 260.289 189.138C261.124 186.299 260.415 185.262 256.128 183.105C252.266 181.183 248.68 177.89 245.748 173.601C243.951 171.009 241.522 163.316 240.842 157.931C240.307 153.68 240.182 146.024 240.594 143.376L240.869 141.673L245.756 141.181C252.992 140.49 256.37 138.68 262.876 131.99C269.945 124.73 272.651 119.804 276.034 107.833C278.629 98.7489 279.606 84.8505 277.989 80.1784C276.895 77.0637 274.864 74.6145 272.179 73.3495C270.389 72.4589 269.308 72.3215 265.124 72.3386C262.445 72.3968 259.437 72.6454 258.498 72.8855C256.338 73.5087 252.031 77.7797 250.165 81.2373C249.465 82.5162 246.209 91.0363 242.956 100.171C239.703 109.258 236.681 117.493 236.309 118.393C235.423 120.334 235.332 121.043 237.865 108.226C242.977 82.2591 243.48 78.8071 242.343 76.7323C241.538 75.2233 238.236 72.3539 236.588 71.7463C234.611 70.9982 230.051 71.0168 229.114 71.7296ZM263.173 77.9705C264.212 79.1477 264.55 81.4621 264.576 87.7003C264.6 93.7495 263.956 97.013 260.753 106.951C256.482 120.201 250.223 129.915 243.376 133.865C239.343 136.245 237.464 136.489 237.456 134.646C237.45 133.133 240.505 121.542 243.52 111.511C250.059 89.8863 254.905 79.3276 258.988 77.6568C260.677 76.9882 262.417 77.1229 263.173 77.9705Z" fill="#3D3539" fill-opacity="0.19"/>
<path d="M147.513 72.7719C146.998 73.2466 141.87 83.8538 136.093 96.354C123.046 124.621 112.513 146.829 111.811 147.588C111.53 147.873 109.419 148.922 107.073 149.876C98.1095 153.599 90.7944 158.024 80.8138 165.863C75.7063 169.854 72.8048 173.032 68.786 178.861C63.4119 186.634 60.1663 197.611 62.0628 201.573C62.9638 203.507 64.1405 203.881 67.9469 203.582C74.244 203.131 82.8655 196.29 93.2498 183.724C100.781 174.572 105.64 167.463 110.165 158.938C112.358 154.864 114.412 151.5 114.742 151.499C115.071 151.498 119.015 150.395 123.522 149.1C128.029 147.758 132.021 146.702 132.444 146.701C133.055 146.698 133.15 146.981 132.966 147.975C132.182 151.664 127.206 187.791 127.213 189.54C127.221 191.43 127.41 191.76 129.249 193.076C133.822 196.46 140.128 198.183 142.755 196.754C144.818 195.611 145.465 192.82 148.525 170.927C150.17 159.247 151.724 148.418 151.952 146.857C152.181 145.297 152.41 143.878 152.41 143.689C152.409 143.5 155.507 142.353 159.356 141.109C166.633 138.763 168.04 138.001 167.798 136.443C167.557 134.79 164.126 134.898 158.492 136.67C155.863 137.531 153.609 138.06 153.467 137.919C153.043 137.543 153.862 130.923 157.7 103.827C159.801 88.9791 160.983 79.1442 160.791 78.1526C160.36 76.0749 158.47 73.8614 156.116 72.8313C153.572 71.6602 148.825 71.6323 147.513 72.7719ZM143.082 92.6392C142.897 93.3961 141.062 104.604 138.906 117.562C136.796 130.567 134.866 141.35 134.679 141.54C134.117 142.11 117.401 146.668 117.259 146.337C117.211 146.149 119.167 141.651 121.637 136.3C131.981 113.952 140.182 96.1955 141.206 93.8284C142.37 91.1771 143.543 90.4634 143.082 92.6392ZM108.266 154.219C108.267 154.456 107.849 155.781 107.291 157.201C104.268 165.294 92.0657 181.554 81.9501 190.859C72.4905 199.64 69.1606 201.497 66.4727 199.429C64.7277 198.018 64.7155 195.041 66.5281 189.977C70.2929 179.517 80.4492 168.653 94.1883 160.326C101.128 156.092 108.261 153.038 108.266 154.219Z" fill="#3D3539" fill-opacity="0.19"/>
<path d="M188.692 72.8872C188.27 73.2197 187.617 74.3567 187.198 75.3981C186.129 78.2853 183.184 93.7986 178.455 121.465C173.084 152.915 173.587 149.652 170.898 170.221C168.39 189.182 168.392 189.655 170.942 192.527C172.453 194.27 175.796 195.627 179.465 195.99C181.628 196.17 182.238 196.026 183.644 195.075L185.285 193.934L187.896 177.193C190.965 157.52 197.458 113.022 200.196 92.7366C202.478 75.9973 202.623 76.9419 197.112 74.3179C193.203 72.4907 189.91 71.937 188.692 72.8872Z" fill="#3D3539" fill-opacity="0.19"/>
<path d="M209.289 212.834C208.071 213.832 206.521 214.216 200.414 215.186C196.374 215.864 191.535 216.404 189.702 216.411C181.146 216.446 176.649 220.151 179.535 224.865C180.624 226.609 181.707 227.219 182.503 226.413C182.878 226.033 182.734 225.419 181.977 224.099C180.603 221.647 181.303 220.274 184.448 219.174C186.889 218.313 190.601 218.015 190.933 218.628C191.17 219.099 188.032 244.869 186.566 254.232C184.549 266.859 183.872 273.761 184.395 275.177C185.25 277.348 190.049 278.557 191.877 277.037C193.001 276.134 193.275 274.196 198.552 231.073C199.463 223.98 200.238 218.117 200.285 218.022C200.379 217.975 202.351 217.447 204.652 216.823C209.441 215.575 212.163 214.335 212.581 213.246C213.278 211.306 211.444 211.077 209.289 212.834Z" fill="#3D3539" fill-opacity="0.19"/>
<path d="M137.852 216.245C137.571 216.577 133.329 225.29 128.388 235.613L119.393 254.365L116.811 255.226C111.507 257.091 101.806 264.361 98.3463 269.054C93.1578 276.212 93.5643 283.677 99.0556 281.575C103.796 279.713 111.986 270.794 117.213 261.746L120.621 255.919L125.175 254.483C130.621 252.759 130.856 252.758 130.532 254.083C130.441 254.698 129.804 259.852 129.122 265.526C127.759 277.204 127.663 276.59 131.381 277.709C133.734 278.409 135.471 277.882 136.076 276.272C136.355 275.562 137.366 269.793 138.327 263.456C139.288 257.119 140.253 251.775 140.488 251.585C140.675 251.395 142.036 250.87 143.444 250.391C146.214 249.482 147.667 248.484 147.663 247.444C147.659 246.499 145.591 246.696 143.199 247.887C142.073 248.459 140.993 248.794 140.852 248.653C140.663 248.512 141.389 241.987 142.391 234.185C144.26 219.905 144.529 216.832 143.917 216.457C143.681 216.316 142.364 216.085 140.906 215.949C138.978 215.721 138.179 215.771 137.852 216.245ZM133.43 238.475C132.188 245.05 131.129 250.489 130.988 250.584C130.661 250.963 122.678 253.123 122.442 252.935C122.206 252.652 135.027 226.559 135.403 226.558C135.544 226.557 134.672 231.901 133.43 238.475ZM117.15 257.635C117.15 257.777 116.265 259.718 115.193 261.944C112.955 266.395 108.184 272.18 102.891 276.833C99.1904 280.062 97.6887 280.683 96.6964 279.411C95.7508 278.091 95.8892 277.429 98.22 272.646C100.924 267.153 104.155 264.068 111.425 260.163C116.491 257.401 117.148 257.115 117.15 257.635Z" fill="#3D3539" fill-opacity="0.19"/>
<path d="M165.163 216.323C160.327 217.571 156.625 220.375 153.261 225.54C150.738 229.284 149.344 233.212 149.032 237.325C148.496 244.369 150.165 250.127 153.753 253.799C157.954 258.035 158.098 258.885 155.341 262.961C152.398 267.321 151.328 270.019 151.434 272.996C151.49 275.264 151.728 276.019 152.578 276.867C153.994 278.279 158.698 279.063 161.28 278.343C163.628 277.719 166.764 274.398 168.254 270.942C169.279 268.67 169.416 267.771 169.171 265.315C168.826 261.346 167.5 258.941 163.488 255.035C157.825 249.435 156.206 244.573 157.681 237.384C158.787 231.897 163.832 224.22 167.959 221.652C169.412 220.748 172.701 220.451 173.738 221.108C175.529 222.235 176.45 229.037 175.191 231.594C174.306 233.393 172.425 233.212 171.806 231.277C171.139 229.295 170.809 229.012 169.966 229.725C169.31 230.2 169.405 230.578 170.448 232.606C171.111 233.926 171.915 235.057 172.292 235.197C173.28 235.571 175.765 234.049 176.793 232.391C177.634 231.064 177.725 230.355 177.473 226.386C177.168 220.716 176.454 218.592 174.427 217.041C172.446 215.537 169.155 215.267 165.163 216.323ZM160.759 265.774C160.259 270.077 156.147 276.096 154.17 275.348C152.051 274.553 154.512 266.981 158.488 262.287L160.125 260.342L160.555 261.947C160.794 262.844 160.895 264.545 160.759 265.774Z" fill="#3D3539" fill-opacity="0.19"/>
<path d="M213.912 216.832C213.68 217.448 213.037 221.137 212.442 225.062C211.893 228.939 210.745 235.56 209.869 239.723C207.703 250.27 205.091 266.869 204.782 271.644C204.562 275.426 204.61 275.709 205.648 276.697C206.734 277.685 216.621 281.52 222.268 283.151C227.398 284.642 231.858 283.254 233.536 279.702C235.167 276.198 233.705 274.928 231.743 278.103C228.894 282.651 226.31 282.993 218.26 280.001L212.987 278.038L213.25 273.263C213.512 268.347 214.839 259.504 218.422 239.215C219.846 231.081 220.53 225.926 220.564 222.665L220.639 217.939L218.99 217.142C218.048 216.674 216.636 216.16 215.789 216.021C214.519 215.743 214.237 215.886 213.912 216.832Z" fill="#3D3539" fill-opacity="0.19"/>
<path d="M261.154 216.592C257.022 217.932 252.522 220.881 248.449 225.009C240.537 232.886 237.981 240.175 241.153 245.55C242.241 247.388 246.248 249.971 249.731 251.138L252.084 251.885L250.491 253.026C247.444 255.259 240.758 263.982 239.643 267.248C238.947 269.33 238.819 272.733 239.392 274.811C240.108 277.454 245.756 279.18 249.841 278.076C255.288 276.589 265.59 266.811 263.702 264.976C263.277 264.505 261.59 265.93 259.767 268.3C257.756 270.908 251.148 275.708 249.549 275.714C247.622 275.722 247.328 272.699 248.764 267.683C250.664 260.87 254.212 254.995 258.336 251.718C261.334 249.342 261.14 247.784 257.803 247.797C255.687 247.806 253.192 246.824 251.305 245.272C249.701 243.908 249.465 243.483 249.267 241.074C249.069 238.57 249.208 238.144 250.982 235.112C253.176 231.37 259.777 224.774 264.606 221.587C271.122 217.26 278.081 217.846 277.067 222.624C276.651 224.516 273.652 226.749 270.459 227.471C268.533 227.904 267.923 228.285 267.926 228.899C267.928 229.372 268.165 229.891 268.401 230.031C269.202 230.548 273.755 228.923 275.817 227.402C278.254 225.643 279.188 224.174 279.508 221.763C279.873 219.068 278.455 217.23 275.302 216.298C271.866 215.319 264.627 215.444 261.154 216.592Z" fill="#3D3539" fill-opacity="0.19"/>
<path d="M80.7431 217.565C77.5968 218.334 75.3484 220.281 71.6547 225.164C67.8678 230.236 65.8183 234.829 64.0151 242.209C62.0282 250.629 61.4654 262.447 62.6316 271.752C63.3601 277.468 64.4501 279.637 67.1817 280.902C69.4895 281.979 75.0345 281.531 77.4727 280.009C80.0517 278.439 82.81 274.742 85.2801 269.533C87.8437 264.182 88.5387 261.722 87.4576 261.726C86.4705 261.73 85.6292 262.915 83.8123 266.94C81.9955 270.964 77.6474 276.748 75.9579 277.416C74.3622 278.037 72.7593 276.909 72.0921 274.691C70.4717 269.263 70.5111 255.888 72.1701 247.752C73.4614 241.651 76.8119 233.319 79.8019 228.817C81.9045 225.689 85.7904 221.846 87.3395 221.319C88.8418 220.841 90.5394 222.157 91.112 224.234C91.8275 226.783 91.7836 227.539 90.4854 231.94C89.2798 236.009 89.0082 238.562 89.7603 238.559C90.8415 238.555 91.587 236.945 92.509 232.499C93.4325 228.431 93.4747 227.249 93.0861 224.179C92.8429 222.195 92.27 220.023 91.8442 219.363C90.2359 216.912 86.0967 216.268 80.7431 217.565Z" fill="#3D3539" fill-opacity="0.19"/>
<g clip-path="url(#clip0_96452_213)">
<path d="M233.114 70.7296C232.598 71.157 231.951 73.7117 231.172 78.6772C228.556 94.2364 220.734 135.668 218.242 147.021C215.796 158.231 212.958 176.958 212.979 181.92C213.016 191.135 215.615 194.386 223.185 194.875C226.335 195.051 226.617 195.002 227.271 193.96C227.645 193.344 228.523 189.749 229.166 185.965C229.855 182.182 231.192 175.607 232.208 171.302C233.178 166.998 234.33 161.416 234.743 158.863C235.203 156.309 235.57 154.275 235.665 154.369C235.759 154.463 236.049 156.353 236.34 158.62C237.264 166.225 240.179 177.792 242.457 182.934C244.259 186.991 245.111 188.31 247.943 191.229C251.673 195.089 253.085 195.698 256.184 194.834C257.217 194.547 259.375 193.356 260.921 192.168C263.077 190.505 263.872 189.557 264.289 188.138C265.124 185.299 264.414 184.262 260.128 182.105C256.265 180.183 252.679 176.89 249.747 172.601C247.951 170.009 245.522 162.316 244.842 156.931C244.307 152.68 244.182 145.024 244.594 142.376L244.869 140.673L249.756 140.181C256.992 139.49 260.369 137.68 266.876 130.99C273.945 123.73 276.651 118.804 280.034 106.833C282.629 97.7489 283.606 83.8505 281.989 79.1784C280.895 76.0637 278.864 73.6145 276.179 72.3495C274.389 71.4589 273.307 71.3215 269.124 71.3386C266.445 71.3968 263.437 71.6454 262.498 71.8855C260.338 72.5087 256.031 76.7797 254.165 80.2373C253.465 81.5162 250.209 90.0363 246.956 99.1707C243.703 108.258 240.681 116.493 240.308 117.393C239.423 119.334 239.332 120.043 241.865 107.226C246.977 81.2591 247.48 77.8071 246.343 75.7323C245.538 74.2233 242.236 71.3539 240.588 70.7463C238.611 69.9982 234.051 70.0168 233.114 70.7296ZM267.173 76.9705C268.211 78.1477 268.55 80.4621 268.575 86.7003C268.6 92.7495 267.955 96.013 264.753 105.951C260.482 119.201 254.223 128.915 247.376 132.865C243.343 135.245 241.464 135.489 241.456 133.646C241.45 132.133 244.505 120.542 247.519 110.511C254.059 88.8863 258.905 78.3276 262.988 76.6568C264.677 75.9882 266.417 76.1229 267.173 76.9705Z" fill="#F70387"/>
<path d="M151.513 71.7719C150.998 72.2466 145.87 82.8538 140.092 95.354C127.046 123.621 116.513 145.829 115.811 146.588C115.53 146.873 113.419 147.922 111.073 148.876C102.109 152.599 94.7942 157.024 84.8136 164.863C79.7061 168.854 76.8046 172.032 72.7858 177.861C67.4117 185.634 64.166 196.611 66.0625 200.573C66.9636 202.507 68.1403 202.881 71.9467 202.582C78.2438 202.131 86.8652 195.29 97.2495 182.724C104.78 173.572 109.64 166.463 114.165 157.938C116.358 153.864 118.412 150.5 118.741 150.499C119.07 150.498 123.015 149.395 127.522 148.1C132.029 146.758 136.021 145.702 136.444 145.701C137.055 145.698 137.15 145.981 136.966 146.975C136.182 150.664 131.206 186.791 131.213 188.54C131.221 190.43 131.41 190.76 133.249 192.076C137.822 195.46 144.128 197.183 146.755 195.754C148.818 194.611 149.465 191.82 152.525 169.927C154.17 158.247 155.724 147.418 155.952 145.857C156.181 144.297 156.41 142.878 156.409 142.689C156.409 142.5 159.506 141.353 163.356 140.109C170.633 137.763 172.04 137.001 171.798 135.443C171.556 133.79 168.125 133.898 162.492 135.67C159.863 136.531 157.609 137.06 157.467 136.919C157.042 136.543 157.862 129.923 161.699 102.827C163.801 87.9791 164.983 78.1442 164.791 77.1526C164.359 75.0749 162.47 72.8614 160.116 71.8313C157.572 70.6602 152.824 70.6323 151.513 71.7719ZM147.081 91.6392C146.896 92.3961 145.062 103.604 142.906 116.562C140.796 129.567 138.866 140.35 138.679 140.54C138.117 141.11 121.401 145.668 121.259 145.337C121.211 145.149 123.167 140.651 125.636 135.3C135.981 112.952 144.181 95.1955 145.206 92.8284C146.37 90.1771 147.543 89.4634 147.081 91.6392ZM112.265 153.219C112.266 153.456 111.849 154.781 111.291 156.201C108.268 164.294 96.0655 180.554 85.9499 189.859C76.4903 198.64 73.1603 200.497 70.4725 198.429C68.7274 197.018 68.7153 194.041 70.5279 188.977C74.2927 178.517 84.4489 167.653 98.1881 159.326C105.128 155.092 112.261 152.038 112.265 153.219Z" fill="#F70387"/>
<path d="M192.692 71.8872C192.27 72.2197 191.617 73.3567 191.198 74.3981C190.129 77.2853 187.184 92.7986 182.455 120.465C177.083 151.915 177.587 148.652 174.898 169.221C172.39 188.182 172.392 188.655 174.942 191.527C176.453 193.27 179.796 194.627 183.464 194.99C185.628 195.17 186.238 195.026 187.644 194.075L189.285 192.934L191.896 176.193C194.965 156.52 201.458 112.022 204.196 91.7366C206.478 74.9973 206.623 75.9419 201.112 73.3179C197.203 71.4907 193.91 70.937 192.692 71.8872Z" fill="#F70387"/>
<path d="M213.289 211.834C212.071 212.832 210.521 213.216 204.414 214.186C200.374 214.864 195.535 215.404 193.701 215.411C185.146 215.446 180.649 219.151 183.535 223.865C184.624 225.609 185.707 226.219 186.503 225.413C186.878 225.033 186.734 224.419 185.977 223.099C184.603 220.647 185.303 219.274 188.448 218.174C190.889 217.313 194.601 217.015 194.933 217.628C195.17 218.099 192.031 243.869 190.565 253.232C188.549 265.859 187.872 272.761 188.395 274.177C189.25 276.348 194.049 277.557 195.876 276.037C197.001 275.134 197.275 273.196 202.552 230.073C203.463 222.98 204.238 217.117 204.285 217.022C204.378 216.975 206.351 216.447 208.651 215.823C213.441 214.575 216.162 213.335 216.581 212.246C217.278 210.306 215.444 210.077 213.289 211.834Z" fill="#F70387"/>
<path d="M141.852 215.245C141.571 215.577 137.329 224.29 132.388 234.613L123.393 253.365L120.811 254.226C115.506 256.091 105.806 263.361 102.346 268.054C97.1577 275.212 97.5643 282.677 103.055 280.575C107.796 278.713 115.985 269.794 121.213 260.746L124.621 254.919L129.175 253.483C134.621 251.759 134.856 251.758 134.532 253.083C134.441 253.698 133.804 258.852 133.122 264.526C131.759 276.204 131.663 275.59 135.381 276.709C137.734 277.409 139.471 276.882 140.076 275.272C140.355 274.562 141.365 268.793 142.327 262.456C143.288 256.119 144.253 250.775 144.488 250.585C144.675 250.395 146.036 249.87 147.444 249.391C150.214 248.482 151.667 247.484 151.663 246.444C151.659 245.499 149.591 245.696 147.199 246.887C146.073 247.459 144.993 247.794 144.852 247.653C144.663 247.512 145.388 240.987 146.391 233.185C148.26 218.905 148.529 215.832 147.917 215.457C147.681 215.316 146.364 215.085 144.906 214.949C142.978 214.721 142.179 214.771 141.852 215.245ZM137.43 237.475C136.188 244.05 135.129 249.489 134.988 249.584C134.66 249.963 126.678 252.123 126.442 251.935C126.206 251.652 139.026 225.559 139.402 225.558C139.543 225.557 138.672 230.901 137.43 237.475ZM121.15 256.635C121.15 256.777 120.265 258.718 119.193 260.944C116.955 265.395 112.184 271.18 106.891 275.833C103.19 279.062 101.689 279.683 100.696 278.411C99.7507 277.091 99.8891 276.429 102.22 271.646C104.924 266.153 108.155 263.068 115.425 259.163C120.49 256.401 121.147 256.115 121.15 256.635Z" fill="#F70387"/>
<path d="M169.163 215.323C164.327 216.571 160.624 219.375 157.261 224.54C154.738 228.284 153.344 232.212 153.032 236.325C152.496 243.369 154.165 249.127 157.753 252.799C161.954 257.035 162.098 257.885 159.341 261.961C156.398 266.321 155.327 269.019 155.434 271.996C155.49 274.264 155.728 275.019 156.578 275.867C157.994 277.279 162.698 278.063 165.28 277.343C167.628 276.719 170.764 273.398 172.254 269.942C173.279 267.67 173.416 266.771 173.171 264.315C172.826 260.346 171.5 257.941 167.488 254.035C161.824 248.435 160.206 243.573 161.681 236.384C162.787 230.897 167.832 223.22 171.958 220.652C173.412 219.748 176.701 219.451 177.738 220.108C179.529 221.235 180.45 228.037 179.191 230.594C178.305 232.393 176.424 232.212 175.805 230.277C175.139 228.295 174.809 228.012 173.966 228.725C173.31 229.2 173.405 229.578 174.448 231.606C175.111 232.926 175.915 234.057 176.292 234.197C177.28 234.571 179.765 233.049 180.793 231.391C181.633 230.064 181.725 229.355 181.473 225.386C181.168 219.716 180.454 217.592 178.427 216.041C176.446 214.537 173.155 214.267 169.163 215.323ZM164.759 264.774C164.259 269.077 160.147 275.096 158.17 274.348C156.051 273.553 158.512 265.981 162.488 261.287L164.125 259.342L164.555 260.947C164.794 261.844 164.895 263.545 164.759 264.774Z" fill="#F70387"/>
<path d="M217.912 215.832C217.68 216.448 217.036 220.137 216.441 224.062C215.893 227.939 214.745 234.56 213.869 238.723C211.703 249.27 209.091 265.869 208.782 270.644C208.562 274.426 208.61 274.709 209.648 275.697C210.734 276.685 220.621 280.52 226.268 282.151C231.398 283.642 235.858 282.254 237.536 278.702C239.167 275.198 237.705 273.928 235.743 277.103C232.894 281.651 230.31 281.993 222.26 279.001L216.987 277.038L217.249 272.263C217.511 267.347 218.839 258.504 222.422 238.215C223.846 230.081 224.53 224.926 224.564 221.665L224.639 216.939L222.99 216.142C222.048 215.674 220.636 215.16 219.789 215.021C218.519 214.743 218.237 214.886 217.912 215.832Z" fill="#F70387"/>
<path d="M265.154 215.592C261.022 216.932 256.522 219.881 252.449 224.009C244.537 231.886 241.981 239.175 245.153 244.55C246.241 246.388 250.248 248.971 253.731 250.138L256.084 250.885L254.491 252.026C251.444 254.259 244.758 262.982 243.643 266.248C242.946 268.33 242.819 271.733 243.392 273.811C244.108 276.454 249.756 278.18 253.841 277.076C259.288 275.589 269.589 265.811 267.702 263.976C267.277 263.505 265.59 264.93 263.767 267.3C261.756 269.908 255.147 274.708 253.549 274.714C251.622 274.722 251.328 271.699 252.764 266.683C254.664 259.87 258.212 253.995 262.336 250.718C265.334 248.342 265.14 246.784 261.802 246.797C259.687 246.806 257.192 245.824 255.305 244.272C253.701 242.908 253.465 242.483 253.267 240.074C253.068 237.57 253.208 237.144 254.982 234.112C257.176 230.37 263.777 223.774 268.605 220.587C275.122 216.26 282.081 216.846 281.067 221.624C280.651 223.516 277.652 225.749 274.458 226.471C272.533 226.904 271.923 227.285 271.926 227.899C271.928 228.372 272.165 228.891 272.401 229.031C273.202 229.548 277.755 227.923 279.817 226.402C282.254 224.643 283.188 223.174 283.508 220.763C283.873 218.068 282.455 216.23 279.302 215.298C275.866 214.319 268.627 214.444 265.154 215.592Z" fill="#F70387"/>
<path d="M84.743 216.565C81.5966 217.334 79.3482 219.281 75.6546 224.164C71.8677 229.236 69.8182 233.829 68.015 241.209C66.0281 249.629 65.4653 261.447 66.6315 270.752C67.36 276.468 68.45 278.637 71.1816 279.902C73.4894 280.979 79.0344 280.531 81.4726 279.009C84.0516 277.439 86.8099 273.742 89.28 268.533C91.8436 263.182 92.5386 260.722 91.4575 260.726C90.4703 260.73 89.629 261.915 87.8122 265.94C85.9953 269.964 81.6473 275.748 79.9578 276.416C78.362 277.037 76.7592 275.909 76.092 273.691C74.4716 268.263 74.5109 254.888 76.17 246.752C77.4612 240.651 80.8117 232.319 83.8018 227.817C85.9044 224.689 89.7903 220.846 91.3394 220.319C92.8417 219.841 94.5393 221.157 95.1119 223.234C95.8274 225.783 95.7835 226.539 94.4853 230.94C93.2797 235.009 93.0081 237.562 93.7602 237.559C94.8413 237.555 95.5869 235.945 96.5089 231.499C97.4324 227.431 97.4746 226.249 97.086 223.179C96.8428 221.195 96.2699 219.023 95.8441 218.363C94.2358 215.912 90.0965 215.268 84.743 216.565Z" fill="#F70387"/>
<path d="M357.5 181.5C357.5 277.578 279.393 355.5 183 355.5C86.6068 355.5 8.5 277.578 8.5 181.5C8.5 85.4219 86.6068 7.5 183 7.5C279.393 7.5 357.5 85.4219 357.5 181.5Z" stroke="#F70387" stroke-width="15"/>
</g>
<defs>
<clipPath id="clip0_96452_213">
<rect width="364" height="363" fill="white" transform="translate(1)"/>
</clipPath>
</defs>
</svg>
